<?xml version="1.0" standalone="no"?>
<!DOCTYPE svg PUBLIC "-//W3C//DTD SVG 20010904//EN"
 "http://www.w3.org/TR/2001/REC-SVG-20010904/DTD/svg10.dtd">
<svg version="1.0" xmlns="http://www.w3.org/2000/svg"
 width="782.000000pt" height="782.000000pt" viewBox="0 0 782.000000 782.000000"
 preserveAspectRatio="xMidYMid meet">

<g transform="translate(0.000000,782.000000) scale(0.100000,-0.100000)"
fill="#000000" stroke="none">
<path d="M3695 7321 c-59 -27 -101 -66 -138 -129 -19 -32 -442 -709 -942
-1507 -499 -797 -917 -1475 -929 -1505 -13 -36 -20 -80 -20 -130 -1 -66 3 -82
30 -130 17 -30 47 -67 66 -82 22 -18 336 -148 889 -367 l854 -338 0 -569 0
-569 26 -56 c29 -62 84 -128 140 -168 l35 -26 -523 -443 c-319 -270 -533 -458
-548 -482 -124 -196 29 -446 261 -427 38 3 77 13 98 25 36 21 2404 2020 2484
2096 63 60 92 125 92 205 -1 109 -42 188 -125 240 -23 14 -292 125 -598 246
l-556 219 -3 426 -3 425 -27 57 c-37 79 -108 152 -185 190 -83 40 -202 50
-285 24 -111 -36 -207 -127 -248 -234 -15 -40 -20 -94 -26 -310 -4 -144 -10
-262 -14 -262 -4 0 -218 84 -476 186 -258 102 -515 203 -572 226 -60 23 -102
45 -100 52 7 28 1492 2386 1501 2383 5 -1 323 -349 706 -772 780 -861 744
-828 874 -827 162 1 281 120 281 282 0 49 -6 76 -25 111 -14 27 -376 435 -868
979 -943 1042 -880 980 -1016 980 -46 0 -84 -7 -110 -19z m295 -2837 c112 -33
199 -125 221 -235 9 -39 9 -347 3 -1149 l-9 -1095 -24 -52 c-28 -62 -103 -136
-169 -166 -70 -31 -179 -30 -252 4 -66 31 -123 86 -158 154 -25 47 -27 60 -30
205 -2 85 1 594 6 1130 8 955 9 976 29 1021 24 55 81 120 130 150 78 49 163
60 253 33z m538 -1756 c128 -50 229 -95 225 -98 -5 -4 -113 -96 -240 -204
l-233 -196 0 295 c0 162 3 295 8 295 4 0 112 -41 240 -92z"/>
<path d="M3766 5885 c-455 -116 -532 -733 -118 -953 290 -155 654 6 737 325
30 115 14 256 -41 365 -32 62 -119 156 -184 198 -106 68 -272 96 -394 65z"/>
</g>
</svg>
