<?xml version="1.0" encoding="utf-8"?>
<!-- Generator: Adobe Illustrator 24.1.2, SVG Export Plug-In . SVG Version: 6.00 Build 0)  -->
<svg version="1.1" id="Camada_1" xmlns="http://www.w3.org/2000/svg" xmlns:xlink="http://www.w3.org/1999/xlink" x="0px" y="0px"
	 viewBox="0 0 337.7 81.3" style="enable-background:new 0 0 337.7 81.3;" xml:space="preserve">
<style type="text/css">
	.st0{fill:none;}
	.st1{fill:#FFFFFF;}
</style>
<g>
	<path class="st0" d="M-3.4,198.7c0-125,0-250,0-375c125,0,250,0,375,0c0,125,0,250,0,375C246.6,198.7,121.6,198.7-3.4,198.7z
		 M39.3,71.5c10,0,19.9,0,29.9,0c5.8,0,8.3-2.5,8.4-8.4c0-14.3,0-28.7,0-43c0-5.9-2.5-8.5-8.3-8.5c-20.1,0-40.1,0-60.2,0
		C3.5,11.6,1,14,1,19.4C0.9,34.1,0.9,48.8,1,63.5c0,5.4,2.6,7.9,8,7.9C19.1,71.5,29.2,71.5,39.3,71.5z M95,24.1c0,14.5,0,29,0,43.4
		c3.3,0,6.4,0,9.9,0c0-8.8,0-17.3,0-26.8c1.3,1.8,2,2.8,2.6,3.8c4.4,6.9,8.9,13.9,13.4,20.7c0.6,1,1.6,2.2,2.6,2.3
		c2.9,0.3,5.8,0.1,8.6,0.1c0-15,0-29.4,0-43.8c-3.3,0-6.4,0-9.7,0c0,8.8,0,17.3,0,25.9c-4.8-6.2-9.5-12.4-12.9-19.2
		C106.2,24.4,101.9,22.2,95,24.1z M203.5,51.7c0.3-0.1,0.6-0.2,0.9-0.3c3.6,4.7,7.3,9.5,11,14.1c0.7,0.9,1.8,1.9,2.8,2
		c3.5,0.2,7.1,0.1,11.5,0.1c-5.3-6.4-10.1-12.2-14.9-18c7.3-4.1,9.8-8.9,8.6-15.9c-0.9-5.4-5.1-9.3-11.6-9.9
		c-5.9-0.5-11.9-0.1-18-0.1c0,14.7,0,29.2,0,43.7c3.3,0,6.4,0,9.8,0C203.5,62.1,203.5,56.9,203.5,51.7z M165.5,23.8
		c0,14.7,0,29.2,0,43.6c8.5,0,16.6,0,24.7,0c0-2.9,0-5.6,0-8.7c-5,0-9.8,0-14.6,0c0-3.1,0-5.8,0-8.9c4.8,0,9.4,0,13.9,0
		c0-3,0-5.6,0-8.6c-4.7,0-9.3,0-14,0c0-3.1,0-5.8,0-8.8c5,0,9.8,0,14.7,0c0-3.1,0-5.7,0-8.6C181.9,23.8,173.8,23.8,165.5,23.8z
		 M322.7,56.3c-9.6,3.6-16.3,2.6-20.5-2.8c-3.5-4.5-3.7-10.3-0.5-15c3.9-5.7,10.1-6.8,21.1-3.6c1.3-2.6,2.6-5.2,3.9-7.8
		c-9.5-7-24.5-5.1-32.5,4c-7.8,8.9-7.5,21.3,0.7,29.8c8.3,8.7,23.2,10.2,31.8,3.2C325.3,61.6,324.1,59.1,322.7,56.3z M227.1,62.7
		c6.2,4.8,12.9,6.6,20.3,5.6c8.4-1.2,12.9-6.2,12.8-13.8c-0.1-5.8-4.1-8.8-8.6-11.3c-2.9-1.6-6.1-2.9-8.9-4.6
		c-0.9-0.6-1.8-2.3-1.6-3.3c0.2-1.1,1.5-2.3,2.6-2.7c1.4-0.5,3.2-0.4,4.7-0.1c2.2,0.5,4.4,1.4,6.7,2.2c1.3-2.5,2.5-4.9,3.9-7.7
		c-6.3-3.6-12.5-5.5-19.3-2.9c-1.3,0.5-2.5,1.2-3.5,2c-7.4,5.7-6.8,15.5,1.4,20.5c3.1,1.9,6.5,3.2,9.5,5.1c1.1,0.7,2.1,2.7,1.9,3.9
		c-0.2,1.2-1.9,2.9-3.1,3c-2.4,0.3-4.9,0-7.2-0.7c-2.3-0.7-4.4-2.2-6.7-3.4C230.3,57.3,228.8,59.8,227.1,62.7z M262.5,23.8
		c0,14.7,0,29.2,0,43.7c8.3,0,16.4,0,24.6,0c0-2.9,0-5.6,0-8.7c-5,0-9.8,0-14.7,0c0-3.1,0-5.8,0-8.8c4.8,0,9.4,0,14.1,0
		c0-3.1,0-5.7,0-8.8c-4.9,0-9.4,0-14.1,0c0-3.1,0-5.7,0-8.8c5,0,9.9,0,14.6,0c0-3.1,0-5.8,0-8.6C278.7,23.8,270.7,23.8,262.5,23.8z
		 M133.6,32.5c3.4,0,6.6,0,10.2,0c0,11.9,0,23.4,0,34.9c3.6,0,6.7,0,10.1,0c0-11.7,0-23.1,0-35c3.5,0,6.8,0,10.1,0
		c0-3.1,0-5.8,0-8.5c-10.3,0-20.3,0-30.5,0C133.6,26.8,133.6,29.5,133.6,32.5z M90.7,67.6c0-14.7,0-29.1,0-43.7c-3.2,0-6.3,0-9.5,0
		c0,14.7,0,29.2,0,43.7C84.4,67.6,87.4,67.6,90.7,67.6z"/>
	<path d="M42.7,71.1c-10.1,0-20.2,0-30.3,0c-5.5,0-8-2.5-8-7.9c0-14.7-0.1-29.4,0-44.1c0-5.4,2.6-7.8,8.1-7.9c20.1,0,40.1,0,60.2,0
		c5.8,0,8.3,2.5,8.3,8.5c0,14.3,0,28.7,0,43c0,5.9-2.5,8.4-8.4,8.4C62.6,71.1,52.6,71.1,42.7,71.1z M60.6,42.4
		c-3.8,1.6-7,2.9-10.2,4.3c-0.7,0.3-1.2,1.3-1.8,2c1,0.2,2.1,0.8,2.8,0.6c3.6-1.3,7.2-2.9,10.6-4.5c0.9-0.4,1.9-1.5,1.9-2.4
		c0-0.8-1-2-1.9-2.4c-3.5-1.7-7-3.2-10.6-4.5c-0.8-0.3-1.9,0.3-2.9,0.5c0.7,0.7,1.2,1.8,2,2.2C53.7,39.5,56.8,40.8,60.6,42.4z
		 M36.7,36.9c-0.1-0.4-0.1-0.8-0.2-1.2c-0.8-0.2-1.8-0.8-2.4-0.5c-4,1.6-8.1,3.2-11.9,5.1c-2.1,1-2,3.1,0,4c3.9,1.9,7.9,3.5,12,5.1
		c0.6,0.2,1.6-0.3,2.4-0.5c0.1-0.4,0.1-0.8,0.2-1.2c-3.9-1.7-7.8-3.5-12.2-5.4C29,40.4,32.9,38.7,36.7,36.9z M40.5,43.2
		c0,2-0.2,4,0.1,5.9c0.1,0.9,1.3,1.7,2,2.5c0.6-0.8,1.8-1.5,1.8-2.3c0.2-3.8,0.2-7.7,0-11.5c0-0.8-1.2-1.5-1.8-2.3
		c-0.7,0.8-1.8,1.6-2,2.5C40.2,39.7,40.5,41.5,40.5,43.2z M42.5,27.6c-1,1.2-2.2,2-2.1,2.7c0,0.7,1.3,2.1,1.8,2
		c0.9-0.2,1.7-1.2,2.6-1.9C44.2,29.6,43.6,28.8,42.5,27.6z"/>
	<path d="M98.3,23.7c6.9-1.9,11.2,0.3,14.4,6.5c3.5,6.8,8.1,12.9,12.9,19.2c0-8.5,0-17.1,0-25.9c3.3,0,6.4,0,9.7,0
		c0,14.4,0,28.8,0,43.8c-2.8,0-5.7,0.2-8.6-0.1c-0.9-0.1-1.9-1.4-2.6-2.3c-4.5-6.9-8.9-13.8-13.4-20.7c-0.6-1-1.4-2-2.6-3.8
		c0,9.5,0,18,0,26.8c-3.5,0-6.5,0-9.9,0C98.3,52.7,98.3,38.2,98.3,23.7z"/>
	<path d="M206.9,51.4c0,5.2,0,10.4,0,15.8c-3.4,0-6.5,0-9.8,0c0-14.5,0-29,0-43.7c6.1,0,12.1-0.4,18,0.1c6.5,0.5,10.7,4.5,11.6,9.9
		c1.2,7.1-1.2,11.8-8.6,15.9c4.8,5.8,9.6,11.6,14.9,18c-4.4,0-7.9,0.1-11.5-0.1c-1-0.1-2.1-1.1-2.8-2c-3.7-4.7-7.3-9.4-11-14.1
		C207.5,51.2,207.2,51.3,206.9,51.4z M207.1,42.5c3.2,0.4,6.5,0.9,8.2-2.1c0.9-1.6,1-4.5,0.2-6.3c-1.6-3.4-5.1-2.8-8.4-2.6
		C207.1,35.3,207.1,38.8,207.1,42.5z"/>
	<path d="M168.9,23.5c8.3,0,16.4,0,24.8,0c0,2.9,0,5.6,0,8.6c-4.9,0-9.7,0-14.7,0c0,3.1,0,5.7,0,8.8c4.7,0,9.3,0,14,0
		c0,3,0,5.6,0,8.6c-4.6,0-9.1,0-13.9,0c0,3.1,0,5.8,0,8.9c4.7,0,9.5,0,14.6,0c0,3.1,0,5.8,0,8.7c-8.1,0-16.3,0-24.7,0
		C168.9,52.7,168.9,38.2,168.9,23.5z"/>
	<path d="M326.1,56c1.4,2.8,2.7,5.3,3.9,7.8c-8.5,7-23.4,5.5-31.8-3.2c-8.2-8.5-8.5-20.9-0.7-29.8c8-9.1,23.1-11.1,32.5-4
		c-1.3,2.6-2.6,5.2-3.9,7.8c-11-3.2-17.2-2.1-21.1,3.6c-3.2,4.7-3,10.5,0.5,15C309.8,58.6,316.5,59.5,326.1,56z"/>
	<path d="M230.5,62.3c1.7-2.8,3.2-5.4,4.8-8.1c2.3,1.2,4.4,2.7,6.7,3.4c2.3,0.7,4.9,1,7.2,0.7c1.2-0.1,2.9-1.8,3.1-3
		c0.2-1.2-0.8-3.2-1.9-3.9c-3-2-6.4-3.3-9.5-5.1c-8.2-5-8.9-14.8-1.4-20.5c1.1-0.8,2.3-1.6,3.5-2c6.9-2.6,13.1-0.6,19.3,2.9
		c-1.4,2.7-2.6,5.1-3.9,7.7c-2.3-0.8-4.5-1.7-6.7-2.2c-1.5-0.3-3.3-0.4-4.7,0.1c-1.1,0.4-2.4,1.6-2.6,2.7c-0.2,1,0.7,2.8,1.6,3.3
		c2.9,1.7,6,3,8.9,4.6c4.5,2.5,8.5,5.4,8.6,11.3c0.2,7.6-4.3,12.7-12.8,13.8C243.4,68.9,236.7,67.2,230.5,62.3z"/>
	<path d="M265.9,23.5c8.2,0,16.2,0,24.5,0c0,2.8,0,5.5,0,8.6c-4.8,0-9.6,0-14.6,0c0,3.1,0,5.7,0,8.8c4.6,0,9.2,0,14.1,0
		c0,3.1,0,5.7,0,8.8c-4.7,0-9.2,0-14.1,0c0,3.1,0,5.7,0,8.8c4.9,0,9.7,0,14.7,0c0,3.1,0,5.8,0,8.7c-8.2,0-16.2,0-24.6,0
		C265.9,52.7,265.9,38.2,265.9,23.5z"/>
	<path d="M136.9,32.1c0-3,0-5.7,0-8.6c10.2,0,20.2,0,30.5,0c0,2.7,0,5.4,0,8.5c-3.2,0-6.5,0-10.1,0c0,11.8,0,23.3,0,35
		c-3.4,0-6.5,0-10.1,0c0-11.5,0-23,0-34.9C143.5,32.1,140.3,32.1,136.9,32.1z"/>
	<path d="M94.1,67.2c-3.3,0-6.3,0-9.5,0c0-14.6,0-29.1,0-43.7c3.2,0,6.3,0,9.5,0C94.1,38.1,94.1,52.5,94.1,67.2z"/>
	<path class="st1" d="M60.6,42.4c-3.8-1.6-6.9-2.8-9.9-4.2c-0.8-0.4-1.4-1.4-2-2.2c1-0.2,2.1-0.8,2.9-0.5c3.6,1.4,7.1,2.9,10.6,4.5
		c0.9,0.4,1.9,1.6,1.9,2.4c0,0.8-1.1,1.9-1.9,2.4c-3.5,1.6-7,3.2-10.6,4.5c-0.8,0.3-1.9-0.4-2.8-0.6c0.6-0.7,1-1.6,1.8-2
		C53.5,45.2,56.7,44,60.6,42.4z"/>
	<path class="st1" d="M36.7,36.9c-3.9,1.7-7.7,3.5-12.1,5.4c4.3,1.9,8.2,3.6,12.2,5.4c-0.1,0.4-0.1,0.8-0.2,1.2
		c-0.8,0.2-1.8,0.8-2.4,0.5c-4-1.6-8.1-3.1-12-5.1c-2-1-2.1-3,0-4c3.9-1.9,7.9-3.6,11.9-5.1c0.6-0.3,1.6,0.3,2.4,0.5
		C36.6,36.1,36.7,36.5,36.7,36.9z"/>
	<path class="st1" d="M40.5,43.2c0-1.7-0.2-3.5,0.1-5.2c0.2-0.9,1.3-1.7,2-2.5c0.6,0.8,1.8,1.5,1.8,2.3c0.2,3.8,0.2,7.7,0,11.5
		c0,0.8-1.2,1.5-1.8,2.3c-0.7-0.8-1.9-1.6-2-2.5C40.2,47.2,40.5,45.2,40.5,43.2z"/>
	<path class="st1" d="M42.5,27.6c1,1.2,1.7,2,2.3,2.7c-0.8,0.7-1.6,1.7-2.6,1.9c-0.5,0.1-1.8-1.3-1.8-2
		C40.4,29.6,41.5,28.8,42.5,27.6z"/>
</g>
</svg>
